<?xml version="1.0" encoding="UTF-8"?>
<svg id="Layer_1" xmlns="http://www.w3.org/2000/svg" version="1.1" viewBox="320 400 2470 510">
  <defs>
    <style>
      .st0 {
        fill: #45c700;
      }
    </style>
  </defs>
  <g fill="#ffffff">
    <rect x="1354.5" y="510.8" width="73.4" height="382.8"/>
    <polygon points="1744.8 510.8 1671.4 510.8 1671.4 510.8 1511.5 510.8 1511.5 584.2 1671.4 584.2 1671.4 893.6 1744.8 893.6 1744.8 584.2 1908.5 584.2 1908.5 510.8 1744.8 510.8 1744.8 510.8"/>
    <path d="M663.8,777.9c0,23.3-18.9,42.3-42.3,42.3h-164.1c-23.3,0-42.3-18.9-42.3-42.3v-267.1h-73.5v268.9c0,62.8,50.9,113.9,113.9,113.9h168c62.9,0,113.9-51.1,113.9-113.9v-268.9h-73.5v267.1Z"/>
    <path d="M1183.5,800.7c0,10.8-8.7,19.5-19.5,19.5h-8.3c-7.2,0-13.8-3.9-17.2-10.3l-140.5-260.9c-12.7-23.6-37.3-38.3-64.1-38.3h-39.8c-3.5,0-7,.3-10.4.7-35.6,5.1-62.9,35.6-62.9,72.5v309.6h73.4v-289.9c0-10.8,8.7-19.5,19.5-19.5h8.3c7.2,0,13.8,3.9,17.2,10.3l140.5,260.9c12.7,23.6,37.3,38.2,64.1,38.2h39.8c3.5,0,7-.3,10.4-.7,35.6-5.1,62.9-35.6,62.9-72.5v-309.6h-73.4v289.9Z"/>
    <path d="M2057.6,820.5c-24,0-43.4-19.5-43.4-43.4s19.4-43.5,43.4-43.5h199.7v-67.7h-202.7c-62.9,0-113.9,51-113.9,113.9s51,113.9,113.9,113.9h276.2v-73.1h-273.1Z"/>
    <path d="M2330.7,510.8h-316.5c-40.6,0-73.5,32.9-73.5,73.5h390v-73.5Z"/>
    <path d="M2511,820.2c-23.3,0-42.3-18.9-42.3-42.3v-267.1h-73.5v268.9c0,62.8,50.9,113.9,113.9,113.9h154.1v-73.4h-152.2Z"/>
  </g>
  <path class="st0" d="M2761.6,510.8c0-54-43.5-97.8-97.4-98.4-.2,0-.4,0-.5,0h-.5c-54.4,0-98.4,44.1-98.4,98.4s43.4,97.8,97.2,98.4c.2,0,.5,0,.7,0h.5c54.4,0,98.4-44.1,98.4-98.4ZM2591.7,510.8c0-39.4,32-71.4,71.4-71.4s3,.1,4.4.2c17.9,1.9,31.8,17.1,31.8,35.5s-16,35.7-35.7,35.7h-.5v-27h-.5c-33.8,0-61.4,26.9-62.6,60.4-5.3-10-8.3-21.4-8.3-33.4ZM2663.2,582.3c-1.5,0-3-.1-4.5-.2-17.9-2-31.8-17.1-31.8-35.5s16-35.7,35.7-35.7h.5v27h.5c33.8,0,61.4-26.9,62.6-60.4,5.3,10,8.3,21.3,8.3,33.4,0,39.5-32,71.4-71.4,71.4Z"/>
</svg>
