<svg width="32" height="32" viewBox="0 4 30 30" fill="none" xmlns="http://www.w3.org/2000/svg">
  <path d="M18.6605 34H11.2593C5.04508 34 0 28.9429 0 22.7139V15.2951C0 9.05709 5.04508 4 11.2593 4H18.6605C24.8837 4 29.9198 9.05709 29.9198 15.2861V22.7049C29.9198 28.9429 24.8747 33.991 18.6605 33.991" fill="#0FAA0A"/>
  <path d="M20.2613 28.1496C21.0976 27.6358 21.826 26.9327 22.3836 26.0493C23.7146 23.9399 23.7146 21.3708 22.6084 19.3245C22.6084 19.3245 22.6084 19.3245 22.6084 19.3155H22.6174C22.5545 19.2163 22.4825 19.1172 22.4196 19.018C22.3027 18.8287 22.1768 18.6484 22.0509 18.4771C21.9789 18.387 21.907 18.2969 21.835 18.2067C20.7199 16.7644 19.353 15.5204 17.8062 14.5378C16.2504 13.5463 14.5057 12.8161 12.6262 12.4194C12.5632 12.4014 12.5003 12.3924 12.4283 12.3744C12.5183 12.2031 12.6082 12.0228 12.7161 11.8606C14.3798 9.22834 17.8331 8.41704 20.4861 10.0036C20.5311 10.0306 20.567 10.0577 20.612 10.0847C20.657 10.1118 20.6929 10.1388 20.7379 10.1658L20.7559 10.1839C22.7164 11.4729 24.1103 13.3029 24.8657 15.3491C25.3513 16.6562 25.5761 18.0535 25.5132 19.4597C25.4592 20.8299 25.1355 22.2091 24.5329 23.5072C24.3441 23.9128 24.1283 24.3095 23.8855 24.6971C22.8602 26.3197 21.4663 27.5727 19.8746 28.402C19.9195 28.384 19.9555 28.3569 19.9915 28.3389C20.0364 28.3119 20.0724 28.2938 20.1174 28.2668C20.1623 28.2398 20.2163 28.2127 20.2613 28.1857" fill="white"/>
  <path d="M22.0419 26.3648C21.5742 27.104 20.9627 27.7079 20.2613 28.1496C20.2163 28.1767 20.1713 28.2037 20.1174 28.2308C20.0814 28.2578 20.0364 28.2758 19.9915 28.3029C19.9465 28.3299 19.8926 28.357 19.8476 28.375C19.8116 28.393 19.7756 28.4111 19.7487 28.4291C19.7487 28.4291 19.7397 28.4291 19.7307 28.4291C19.7307 28.4291 19.7127 28.4291 19.7127 28.4381C17.7252 29.4387 15.45 29.7993 13.2287 29.4297C11.8708 29.2043 10.5398 28.7085 9.30777 27.9243C8.07573 27.14 7.05952 26.1484 6.27712 25.0216C5.09005 23.3089 4.45154 21.2897 4.39758 19.2344C4.52349 21.2806 5.60265 23.2368 7.45521 24.4177C8.51639 25.0847 9.68548 25.4273 10.8546 25.4453C10.8546 25.4453 10.8546 25.4453 10.8546 25.4543C10.9265 25.4543 10.9895 25.4453 11.0614 25.4363C11.3312 25.4363 11.601 25.4183 11.8618 25.3822C11.9787 25.3642 12.0866 25.3462 12.2035 25.3281C14.0471 25.0757 15.7917 24.5078 17.3835 23.6695C18.9033 22.8762 20.2793 21.8395 21.4573 20.6136C21.6282 20.4603 21.7901 20.2981 21.952 20.1178C23.157 21.9477 23.2559 24.3816 22.0149 26.3558" fill="white"/>
  <path d="M10.324 23.9219C10.369 24.1292 10.4229 24.3275 10.4859 24.5349C9.32577 24.607 8.12071 24.3275 7.05953 23.6515C5.30589 22.5427 4.36163 20.6316 4.3976 18.6935C4.3976 18.6575 4.3976 18.6214 4.3976 18.5763C4.3976 18.5493 4.3976 18.5223 4.3976 18.5042C4.40659 18.2789 4.42458 18.0535 4.45156 17.8281C4.62242 16.2777 5.14402 14.7452 6.02533 13.339C6.26815 12.9513 6.53794 12.5818 6.81672 12.2392C7.72501 11.1304 8.83116 10.256 10.0452 9.61601C11.2862 8.96697 12.6442 8.57034 14.0381 8.45315C16.2054 8.26385 18.4537 8.74161 20.4501 9.96757C17.3745 8.11961 13.3816 9.06613 11.4481 12.113C11.4301 12.14 11.4211 12.1581 11.4032 12.1851C11.4032 12.1851 11.4032 12.1851 11.3942 12.1851C11.3942 12.1851 11.3942 12.1941 11.3942 12.2031C11.3762 12.2302 11.3672 12.2572 11.3492 12.2843C11.1873 12.5547 11.0524 12.8342 10.9355 13.1226C10.8546 13.3209 10.7826 13.5193 10.7197 13.7266C10.1531 15.223 9.79341 16.8275 9.69449 18.5042C9.69449 18.5944 9.68549 18.6935 9.68549 18.7837C9.61355 20.5595 9.83837 22.2903 10.315 23.9129" fill="white"/>
</svg>
