<svg width="32" height="32" viewBox="2535 383 256 256" xmlns="http://www.w3.org/2000/svg">
  <rect x="2535" y="383" width="256" height="256" rx="58" fill="#45c700"/>
  <path fill="#ffffff" d="M2761.6,510.8c0-54-43.5-97.8-97.4-98.4-.2,0-.4,0-.5,0h-.5c-54.4,0-98.4,44.1-98.4,98.4s43.4,97.8,97.2,98.4c.2,0,.5,0,.7,0h.5c54.4,0,98.4-44.1,98.4-98.4ZM2591.7,510.8c0-39.4,32-71.4,71.4-71.4s3,.1,4.4.2c17.9,1.9,31.8,17.1,31.8,35.5s-16,35.7-35.7,35.7h-.5v-27h-.5c-33.8,0-61.4,26.9-62.6,60.4-5.3-10-8.3-21.4-8.3-33.4ZM2663.2,582.3c-1.5,0-3-.1-4.5-.2-17.9-2-31.8-17.1-31.8-35.5s16-35.7,35.7-35.7h.5v27h.5c33.8,0,61.4-26.9,62.6-60.4,5.3,10,8.3,21.3,8.3,33.4,0,39.5-32,71.4-71.4,71.4Z"/>
</svg>
